<?xml version="1.0" encoding="utf-8"?>
<!-- Generator: Adobe Illustrator 24.1.2, SVG Export Plug-In . SVG Version: 6.00 Build 0)  -->
<svg version="1.1" id="Layer_1" xmlns="http://www.w3.org/2000/svg" xmlns:xlink="http://www.w3.org/1999/xlink" x="0px" y="0px"
	 viewBox="0 0 268.8 59.6" style="enable-background:new 0 0 268.8 59.6;" xml:space="preserve">
<style type="text/css">
	.st0{fill:#FFFFFF;}
	.st1{fill:#858A91;}
	.st2{fill:#EF3A42;}
	.st3{fill:#B81237;}
	.st4{fill:#6F737A;}
	.st5{fill:#CCCDD1;}
	.st6{fill:#231F20;}
</style>
<g id="Layer_2_1_">
	<g id="Layer_1-2">
		<polygon class="st0" points="40,0 30.3,17.9 21.8,1.9 0,1.9 30.3,59.6 39.9,41.2 49.6,59.5 79.8,1.9 57.9,1.9 49.5,17.9 		"/>
		<path class="st0" d="M56.5,25.5"/>
		<polygon class="st1" points="49.5,25.8 49.5,30.3 49.5,30.3 49.5,30.3 49.5,38.7 49.5,38.7 55.3,27.7 49.5,25.8 		"/>
		<polygon class="st2" points="57.1,24.2 67.8,3.9 59.2,3.9 49.5,22.3 49.5,22.3 49.5,24.6 		"/>
		<polygon class="st2" points="30.2,22.3 34,22.3 39.9,17.7 39.9,4.2 30.2,22.3 30.2,22.3 		"/>
		<polygon class="st1" points="33.7,25 30.2,28.1 30.2,30.7 		"/>
		<polygon class="st1" points="30.2,32.1 30.2,38.7 30.2,38.7 35.5,28.8 34.6,27.7 		"/>
		<polygon class="st1" points="30.2,24.9 32.9,23.1 30.2,23.3 30.2,23.3 30.2,24.9 		"/>
		<polygon class="st1" points="30.2,55.2 30.2,38.7 28,34.4 28,34.4 28,34.4 26.6,31.9 16.1,28.1 		"/>
		<polygon class="st2" points="15.1,26.3 20,26.9 23.3,25.4 12,3.9 3.4,3.9 		"/>
		<polygon class="st3" points="23.3,25.4 30.2,22.3 30.2,22.3 30.2,22.3 20.6,3.9 12,3.9 		"/>
		<polygon class="st4" points="30.2,24.9 30.2,24.9 30.2,23.3 24.6,28 		"/>
		<polygon class="st4" points="30.2,30.7 30.2,28.1 26.6,31.9 26.6,31.9 28,34.4 30.2,30.7 		"/>
		<polygon class="st4" points="46.2,24.4 49.5,30.3 49.5,25.8 49.5,25.8 		"/>
		<polygon class="st3" points="39.9,17.7 39.9,17.7 39.9,17.7 49.5,24.6 49.5,22.3 39.9,4.2 39.9,4.2 39.9,17.7 		"/>
		<polygon class="st4" points="28,34.4 30.2,38.7 30.2,32.1 		"/>
		<polygon class="st3" points="57.1,24.2 63.7,28.2 76.4,3.9 67.8,3.9 		"/>
		<polygon class="st4" points="37.7,24.5 30.2,38.7 30.2,38.7 30.2,55.2 30.2,55.2 39.9,36.8 39.9,30 		"/>
		<polygon class="st0" points="49.5,30.3 49.5,30.3 49.5,30.3 		"/>
		<polygon class="st0" points="20,26.9 15.1,26.3 16.1,28.1 26.6,31.9 23.3,25.4 		"/>
		<polygon class="st0" points="28,34.4 28,34.4 28,34.4 		"/>
		<polygon class="st0" points="39.9,17.7 34,22.3 30.2,22.3 30.2,22.3 30.2,23.3 30.2,23.3 32.9,23.1 30.2,24.9 30.2,24.9 
			30.2,28.1 33.7,25 30.2,30.7 30.2,32.1 34.6,27.7 35.5,28.8 39.9,20.4 		"/>
		<polygon class="st5" points="43.4,24.9 49.5,30.3 49.5,30.3 46.2,24.4 49.5,25.8 49.5,25.8 49.5,24.6 39.9,17.7 39.9,17.7 
			39.9,17.7 39.9,17.7 39.9,20.4 43.4,27 		"/>
		<polygon class="st5" points="30.2,28.1 30.2,24.9 30.2,24.9 24.6,28 30.2,23.3 30.2,22.3 30.2,22.3 23.3,25.4 26.6,31.9 
			26.6,31.9 		"/>
		<polygon class="st5" points="63.7,28.2 57.1,24.2 56.5,25.5 56.5,31.3 58.7,28.6 62.8,29.9 		"/>
		<polygon class="st5" points="30.2,30.7 30.2,30.7 28,34.4 28,34.4 30.2,32.1 		"/>
		<polygon class="st4" points="43.4,24.9 43.4,27 49.5,38.7 49.5,30.3 		"/>
		<polygon class="st5" points="37.7,24.5 39.9,30 39.9,20.4 		"/>
		<polygon class="st4" points="56.5,31.3 56.5,25.5 55.3,27.7 49.5,38.7 49.5,38.7 49.5,55.2 49.5,55.2 62.8,29.9 58.7,28.6 		"/>
		<polygon class="st0" points="49.5,24.6 49.5,25.8 49.5,25.8 55.3,27.7 56.5,25.5 57.1,24.2 		"/>
		<polygon class="st1" points="40.5,21.6 39.9,20.4 39.9,30 39.9,36.8 39.9,36.8 49.5,55.2 49.5,38.7 		"/>
		<path class="st6" d="M95.2,19.6c-1.1-4.5-2.2-8.8-3-12.1c-0.5-1.9-0.8-2.2-3-2.3V3.7h11v1.5l-1.9,0.2c-0.8,0.1-1,0.5-0.8,1.7
			c0.6,2.5,4.2,17.8,4.9,20.5h0.1l5.4-23.3h3.9c0.8,2.9,5,20.4,5.8,23.3h0.2l2.5-10.8c1.2-5,1.8-8.4,2-9.7c0.2-1,0.1-1.6-0.8-1.7
			l-2.4-0.3V3.7h9.2v1.5c-2.3,0.2-2.7,0.4-3.3,2.6c-0.6,1.9-1.6,6-2.8,10.8l-3.8,15.4H114c-0.7-2.9-4.7-18.9-5.6-21.9h-0.1
			l-5.3,21.9h-4.4L95.2,19.6z"/>
		<path class="st6" d="M128.8,32.7c2.8-0.2,3-0.3,3-2.3V11.3c0-2-0.2-2.1-3-2.3V7.7h19.1v6.8h-1.3c-0.9-3.8-1.6-5.1-5.5-5.1h-3
			c-1.1,0-1.3,0.3-1.3,1.4v8.7h4c2.6,0,2.9-0.8,3.4-3.4h1.3v8.6h-1.3c-0.5-2.6-0.8-3.4-3.4-3.4h-4v8.3c0,1.7,0.3,2.5,1.1,2.7
			c1.1,0.2,2.3,0.3,3.5,0.3c4.4,0,5.4-1.6,6.5-5.8h1.3l-0.4,7.4h-19.9V32.7z"/>
		<path class="st6" d="M166.5,14.7c-0.9-4.3-2.9-6-5.4-6c-2.2-0.1-4,1.6-4.1,3.7c0,0.2,0,0.3,0,0.5c0,2.8,2.7,4.2,5,5.2l1.1,0.5
			c3.4,1.5,6.3,3.6,6.3,8c0,4.1-2.3,8.1-9.3,8.1c-2.4,0-5.8-0.6-7.6-2.3l-0.5-6.6h1.3c1.2,4.6,3.8,7.3,6.8,7.3
			c2.7,0,4.5-1.6,4.5-4.5c0-2.7-1.8-4.4-4.3-5.4l-0.8-0.4c-3.4-1.4-7.1-3.6-7.1-8s2.9-7.6,8.8-7.6c2.3-0.1,4.5,0.5,6.5,1.7v6
			L166.5,14.7z"/>
		<path class="st6" d="M176,32.7l2.2-0.2c1.3-0.1,1.5-0.6,1.5-2.1V9.3H178c-3.7,0-4.2,1.3-5.2,5.3h-1.3V7.7h21.3v6.9h-1.3
			c-0.9-3.9-1.5-5.3-5.2-5.3h-1.7v21.2c0,1.4,0.2,1.9,1.5,2.1l2.2,0.2v1.3H176V32.7z"/>
		<path class="st6" d="M195.4,32.7c2.8-0.2,3-0.3,3-2.3V11.3c0-2-0.2-2.1-3-2.3V7.7h19.1v6.8h-1.3c-0.9-3.8-1.6-5.1-5.5-5.1h-3
			c-1.1,0-1.3,0.3-1.3,1.4v8.7h4c2.6,0,2.9-0.8,3.4-3.4h1.3v8.6h-1.3c-0.5-2.6-0.8-3.4-3.4-3.4h-4v8.3c0,1.7,0.3,2.5,1.1,2.7
			c1.1,0.2,2.3,0.3,3.5,0.3c4.4,0,5.4-1.6,6.5-5.8h1.3l-0.4,7.4h-19.9V32.7z"/>
		<path class="st6" d="M226.3,30.5c0,2,0.2,2.1,3,2.3v1.3h-11v-1.3c2.8-0.2,3-0.3,3-2.3V11.3c0-2-0.2-2.1-3-2.3V7.7h12
			c6.5,0,8.6,3,8.6,6.7c0,3.5-2.5,5.9-6,6.5v0.1c3.8,1,4.4,3.5,4.9,6.7c0.3,1.9,0.8,3.4,1.8,4.3c0.5,0.4,1.1,0.7,1.8,0.8v1.3h-2.8
			c-3.2,0-4.7-1-5.4-3.6c-0.5-1.9-0.8-4.3-1.1-5.5c-0.5-2.2-1.7-3.1-3.7-3.1h-2L226.3,30.5z M228.5,20.2c3.6,0,5.1-2.1,5.1-5.6
			c0-4.1-2.3-5.4-4.8-5.4c-2.1,0-2.4,0.4-2.4,1.6v9.3H228.5z"/>
		<path class="st6" d="M251.3,7.7c4.1,6.4,8.2,12.8,12.4,19.2h0.1V16.6c0-1.8,0-3.7-0.2-5.5c-0.1-1.3-0.5-1.8-1.6-1.9L260.1,9V7.7
			h8.7V9l-1.3,0.1c-0.9,0.1-1.3,0.7-1.5,1.9c-0.2,1.8-0.2,3.7-0.2,5.5v17.5h-3.4c-4.6-7.3-9.2-14.6-13.9-21.9h-0.1v13
			c0,1.8,0,3.7,0.2,5.5c0.1,1.3,0.6,1.8,1.6,1.9l1.9,0.2v1.3h-8.7v-1.4l1.3-0.2c0.9-0.1,1.3-0.7,1.4-2c0.2-1.8,0.2-3.7,0.2-5.5V11.3
			c0-2-0.2-2.1-3-2.3V7.7H251.3z"/>
		<path class="st6" d="M106.9,51.3l-0.2,2.3c-0.9,0.4-2,0.6-3,0.6c-3.2,0-5-1.5-5-4.8c-0.1-1.3,0.4-2.6,1.3-3.6c1-1,2.4-1.5,3.8-1.4
			c1,0,2,0.2,2.9,0.5v2.2h-0.5c0-1.3-1.1-2.3-2.4-2.2c0,0-0.1,0-0.1,0c-2.5,0-3.3,2.3-3.3,4.4c0,1.6,0.5,4.4,3.3,4.4
			c1.8,0,2.4-1,2.8-2.4H106.9z"/>
		<path class="st6" d="M117.7,49.3c0,2.9-1.5,4.9-4.5,4.9s-4.5-2-4.5-4.9s1.4-4.9,4.6-4.9S117.7,46.4,117.7,49.3 M110.3,49.3
			c0,2,0.5,4.4,2.9,4.4s2.9-2.4,2.9-4.4s-0.5-4.4-2.9-4.4S110.3,47.4,110.3,49.3"/>
		<path class="st6" d="M122,52.4c0,0.9,0.2,1.1,1.7,1.1s2.1-0.3,2.4-2.1h0.5l-0.3,2.6h-7v-0.5c1.2-0.1,1.2-0.1,1.2-0.9V46
			c0-0.7,0-0.8-1.2-0.8v-0.5h3.9v0.5c-1.2,0.1-1.3,0.1-1.3,0.8L122,52.4z"/>
		<path class="st6" d="M136.9,49.3c0,2.9-1.5,4.9-4.5,4.9s-4.5-2-4.5-4.9s1.5-4.9,4.5-4.9S136.9,46.4,136.9,49.3 M129.5,49.3
			c0,2,0.5,4.4,2.9,4.4s2.9-2.4,2.9-4.4s-0.5-4.4-2.9-4.4S129.5,47.4,129.5,49.3"/>
		<path class="st6" d="M141.2,52.7c0,0.8,0,0.8,1.2,0.9V54h-3.8v-0.5c1.2-0.1,1.2-0.1,1.2-0.9V46c0-0.7,0-0.8-1.2-0.8v-0.5h4.2
			c2.3,0,3,1,3,2.3c0,1.2-1,2.2-2.2,2.3l0,0c1.2,0.3,2,1.3,2,2.5c0.1,0.9,0.3,1.6,1.4,1.8V54h-1.1c-0.8,0.1-1.5-0.4-1.6-1.2
			c-0.1-0.6-0.3-1.7-0.4-2.1c-0.2-0.8-0.9-1.4-1.8-1.2h-0.9L141.2,52.7z M141.2,49.1h1c1.3,0,2-0.6,2-2c0-1.8-1.1-1.9-2.1-1.9
			s-0.9,0.1-0.9,0.7L141.2,49.1z"/>
		<path class="st6" d="M153.1,54v-0.5l0.6-0.1c0.4,0,0.5-0.2,0.4-0.6c-0.2-0.7-0.7-2.1-0.9-2.5h-3c-0.3,1-0.6,1.7-0.8,2.6
			c-0.1,0.3-0.1,0.5,0.3,0.5l0.7,0.1V54h-3v-0.5c0.8,0,1-0.2,1.3-0.9c1-2.5,1.9-5.4,2.9-8h1.1c0.8,2.2,2.1,6.2,2.9,8.2
			c0.2,0.7,0.4,0.7,1.2,0.8V54H153.1z M151.7,46L151.7,46c-0.4,1.2-0.9,2.6-1.4,3.9h2.6C152.7,48.9,152,46.9,151.7,46"/>
		<path class="st6" d="M162.1,44.7c1.3-0.1,2.7,0.3,3.8,1.1c0.8,0.9,1.3,2.1,1.2,3.4c0,3.4-2.1,4.9-5.2,4.9h-4.2v-0.5
			c1.2-0.1,1.2-0.1,1.2-0.9V46c0-0.8,0-0.8-1.2-0.9v-0.4L162.1,44.7z M160.2,52.3c0,1,0.2,1.2,1.4,1.2c2.3,0,3.9-0.9,3.9-4.3
			c0-2.3-0.9-4-3.7-4c-1.4,0-1.5,0.1-1.5,0.8L160.2,52.3z"/>
		<path class="st6" d="M178.2,49.3c0,2.9-1.5,4.9-4.5,4.9s-4.5-2-4.5-4.9s1.4-4.9,4.6-4.9S178.2,46.4,178.2,49.3 M170.8,49.3
			c0,2,0.5,4.4,2.9,4.4s2.9-2.4,2.9-4.4s-0.5-4.4-2.9-4.4S170.8,47.4,170.8,49.3"/>
		<path class="st6" d="M192.9,44.7v0.4c-1.2,0.1-1.2,0.1-1.2,0.9v4.7c0,0.7-0.1,1.4-0.4,2c-0.6,1.3-2.1,1.6-3.4,1.6
			s-2.7-0.3-3.4-1.6c-0.3-0.6-0.4-1.3-0.4-2V46c0-0.7,0-0.8-1.2-0.8v-0.5h3.9v0.5c-1.2,0.1-1.2,0.1-1.2,0.8v4.4
			c0,1.6,0.4,3.4,2.3,3.4s2.4-1.7,2.4-3.4V46c0-0.7,0-0.8-1.2-0.8v-0.5L192.9,44.7z"/>
		<path class="st6" d="M201.5,54c-1.9-2.7-3.7-5.4-5.7-8.1l0,0v5.3c0,0.6,0,1.1,0.1,1.7c0.1,0.6,0.5,0.6,1.4,0.7V54h-3.4v-0.5
			c0.7-0.1,1.1-0.1,1.2-0.7c0.1-0.6,0.1-1.1,0.1-1.7V46c0-0.8,0-0.8-1.2-0.9v-0.5h2.7c1.5,2.2,3.4,5,5.2,7.4l0,0v-4.6
			c0-0.6,0-1.1-0.1-1.7c-0.1-0.6-0.5-0.6-1.4-0.7v-0.5h3.4v0.5c-0.7,0-1.1,0.1-1.1,0.7c-0.1,0.6-0.1,1.1-0.1,1.7V54H201.5z"/>
		<path class="st6" d="M207.6,52.7c0,0.8,0,0.8,1.2,0.9V54H205v-0.5c1.2-0.1,1.2-0.1,1.2-0.9V46c0-0.7,0-0.8-1.2-0.8v-0.5h3.8v0.5
			c-1.2,0.1-1.2,0.1-1.2,0.8L207.6,52.7z"/>
		<path class="st6" d="M213.2,44.7v0.5l-0.7,0.1c-0.3,0-0.4,0.1-0.2,0.5c0.8,2.2,1.8,4.7,2.6,6.9l0,0c0.8-2.2,1.8-4.9,2.4-7
			c0.1-0.2,0.1-0.4-0.3-0.4l-0.7,0v-0.5h2.9v0.5c-0.7,0-0.9,0-1.2,0.7c-0.9,2.3-2.1,5.5-3.1,8.2h-1.1c-1-2.8-2-5.5-3-8.1
			c-0.3-0.7-0.5-0.7-1.2-0.8v-0.5L213.2,44.7z"/>
		<path class="st6" d="M221,46c0-0.7,0-0.8-1.2-0.8v-0.5h6.9V47h-0.5c-0.2-1.4-0.5-1.8-2-1.8H223c-0.4,0-0.5,0.1-0.5,0.5v3.2h1.8
			c1.1,0,1.2-0.4,1.3-1.2h0.4v3h-0.5c-0.1-0.9-0.2-1.3-1.3-1.3h-1.8v3c0,0.9,0.1,1.1,1.7,1.1s2.3-0.3,2.6-2h0.5l-0.3,2.4h-7.1v-0.5
			c1.2-0.1,1.2-0.1,1.2-0.9L221,46z"/>
		<path class="st6" d="M231.2,52.7c0,0.8,0,0.8,1.2,0.9V54h-3.8v-0.5c1.2-0.1,1.2-0.1,1.2-0.9V46c0-0.7,0-0.8-1.2-0.8v-0.5h4.2
			c2.3,0,3,1,3,2.3c0,1.2-1,2.2-2.2,2.3l0,0c1.2,0.3,2,1.3,2,2.5c0.1,0.9,0.4,1.6,1.4,1.8V54h-1.2c-0.8,0.1-1.5-0.4-1.6-1.2
			c-0.1-0.6-0.3-1.7-0.4-2.1c-0.2-0.8-0.9-1.4-1.8-1.2h-0.9V52.7z M231.2,49.1h1c1.3,0,2-0.6,2-2c0-1.8-1.1-1.9-2.1-1.9
			s-0.9,0.1-0.9,0.7L231.2,49.1z"/>
		<path class="st6" d="M243.3,47c-0.2-1.4-0.9-2.1-2-2.1c-0.9-0.1-1.7,0.6-1.7,1.5c0,0.1,0,0.1,0,0.2c0,1.1,1.1,1.6,2,1.9
			c1.6,0.6,2.8,1.1,2.8,2.9c0,1.4-0.9,2.8-3.4,2.8c-1,0-1.9-0.2-2.7-0.8l-0.1-2.2h0.5c0.4,1.5,1.2,2.5,2.4,2.5
			c0.9,0.1,1.8-0.5,1.9-1.5c0-0.1,0-0.2,0-0.3c0-1.1-1.1-1.7-2.1-2.1c-1.4-0.5-2.6-1.1-2.6-2.8s1.4-2.7,3.1-2.7
			c0.8,0,1.6,0.2,2.4,0.6v2L243.3,47z"/>
		<path class="st6" d="M248.4,52.7c0,0.8,0,0.8,1.2,0.9V54h-3.8v-0.5c1.2-0.1,1.2-0.1,1.2-0.9V46c0-0.7,0-0.8-1.2-0.8v-0.5h3.8v0.5
			c-1.2,0.1-1.2,0.1-1.2,0.8V52.7z"/>
		<path class="st6" d="M255.6,52.7c0,0.6,0,0.8,0.8,0.8h0.7V54h-4.4v-0.5h0.7c0.8,0,0.8-0.2,0.8-0.8v-7.6h-0.8c-1.6,0-1.8,0.3-2,1.9
			h-0.5v-2.4h7.9V47h-0.5c-0.2-1.6-0.4-1.9-2-1.9h-0.8L255.6,52.7z"/>
		<path class="st6" d="M262.2,54v-0.5c1.4-0.1,1.4-0.1,1.4-0.9v-2c0-0.3-0.1-0.5-0.2-0.8c-0.7-1.3-1.5-2.8-2.3-4.2
			c-0.3-0.6-0.5-0.7-1.2-0.7v-0.4h3.6V45l-0.8,0.1c-0.2,0-0.3,0.2-0.1,0.4c0.6,1.2,1.4,2.6,2.2,4l0,0c0.8-1.5,1.6-3.2,1.9-4
			c0.1-0.3,0.1-0.4-0.2-0.5l-0.7-0.1v-0.4h3V45c-0.9,0-1,0.2-1.4,0.9s-1.4,2.5-2.1,3.9c-0.1,0.2-0.2,0.5-0.2,0.8v2
			c0,0.7,0,0.8,1.4,0.9V54H262.2z"/>
	</g>
</g>
</svg>
